<svg width="13" height="15" viewBox="0 0 13 15" fill="none" xmlns="http://www.w3.org/2000/svg">
<path d="M1.55011 5.39702C1.56263 5.23778 1.63347 5.08921 1.74852 4.98088C1.86357 4.87254 2.01439 4.81241 2.17094 4.81244H10.8291C10.9856 4.81241 11.1364 4.87254 11.2515 4.98088C11.3665 5.08921 11.4374 5.23778 11.4499 5.39702L11.996 12.3357C12.0098 12.5105 11.9879 12.6864 11.9318 12.8522C11.8756 13.018 11.7865 13.1702 11.6699 13.2991C11.5533 13.428 11.4118 13.5309 11.2544 13.6013C11.0969 13.6717 10.9269 13.7081 10.755 13.7082H2.24505C2.07313 13.7081 1.90309 13.6717 1.74562 13.6013C1.58816 13.5309 1.44668 13.428 1.3301 13.2991C1.21352 13.1702 1.12436 13.018 1.06824 12.8522C1.01211 12.6864 0.990239 12.5105 1.00399 12.3357L1.54948 5.39702H1.55011Z" stroke="black" stroke-width="0.812543" stroke-linecap="round" stroke-linejoin="round"/>
<path d="M8.99041 6.71868V3.54164C8.99041 2.86755 8.72799 2.22108 8.26087 1.74443C7.79375 1.26778 7.1602 1 6.4996 1C5.839 1 5.20545 1.26778 4.73833 1.74443C4.27121 2.22108 4.00879 2.86755 4.00879 3.54164V6.71868" stroke="black" stroke-width="0.812543" stroke-linecap="round" stroke-linejoin="round"/>
</svg>
