<svg width="16" height="16" viewBox="0 0 16 16" fill="none" xmlns="http://www.w3.org/2000/svg">
<path d="M0.991166 6.11664L14.6254 1.50174C14.6746 1.4849 14.7276 1.48266 14.778 1.4953C14.8284 1.50794 14.8741 1.53492 14.9096 1.57298C14.945 1.61103 14.9687 1.65853 14.9777 1.70975C14.9867 1.76096 14.9807 1.8137 14.9604 1.86158L9.39077 15.1367C9.3687 15.1871 9.33174 15.2295 9.28485 15.2582C9.23797 15.287 9.1834 15.3007 9.1285 15.2975C9.07361 15.2943 9.021 15.2743 8.97777 15.2403C8.93454 15.2064 8.90275 15.1599 8.88668 15.1073L6.81825 9.43957C6.79463 9.35945 6.75271 9.28592 6.69579 9.2248C6.63887 9.16368 6.56852 9.11663 6.49029 9.08739L0.984607 6.62366C0.932604 6.60428 0.887861 6.5693 0.856499 6.52351C0.825138 6.47771 0.808691 6.42335 0.809409 6.36784C0.810127 6.31234 0.827975 6.25842 0.86051 6.21345C0.893046 6.16848 0.938679 6.13467 0.991166 6.11664V6.11664Z" stroke="#25272E" stroke-width="1.04988" stroke-linecap="round" stroke-linejoin="round"/>
<path d="M14.8527 1.62649L6.73771 9.18625" stroke="#25272E" stroke-width="1.04988" stroke-linecap="round" stroke-linejoin="round"/>
</svg>
