<svg width="19" height="18" viewBox="0 0 19 18" fill="none" xmlns="http://www.w3.org/2000/svg">
<path d="M12.3928 8.65337C12.3928 7.03086 11.0948 5.73285 9.47227 5.73285C7.84977 5.73285 6.55176 7.03086 6.55176 8.65337C6.55176 10.2759 7.84977 11.5739 9.47227 11.5739C11.0948 11.5739 12.3928 10.2759 12.3928 8.65337ZM13.9071 8.65337C13.9071 11.1412 11.9601 13.0882 9.47227 13.0882C6.98443 13.0882 5.03742 11.1412 5.03742 8.65337C5.03742 6.16552 6.98443 4.21852 9.47227 4.21852C11.9601 4.21852 13.9071 6.16552 13.9071 8.65337ZM15.097 4.00218C15.097 4.65118 14.6643 5.08385 14.0153 5.08385C13.3663 5.08385 12.9336 4.65118 12.9336 4.00218C12.9336 3.35318 13.3663 2.92051 14.0153 2.92051C14.6643 2.92051 15.097 3.46135 15.097 4.00218ZM9.47227 1.51434C8.17427 1.51434 5.47009 1.40617 4.38842 1.83884C3.63125 2.16334 2.98225 2.81234 2.76592 3.56951C2.33325 4.65118 2.44141 7.35536 2.44141 8.65337C2.44141 9.95137 2.33325 12.6555 2.76592 13.7372C2.98225 14.4944 3.63125 15.1434 4.38842 15.3597C5.47009 15.7924 8.28244 15.6842 9.47227 15.6842C10.6621 15.6842 13.4745 15.7924 14.5561 15.3597C15.3133 15.0352 15.8541 14.4944 16.1786 13.7372C16.6113 12.5474 16.5031 9.8432 16.5031 8.65337C16.5031 7.46353 16.6113 4.65118 16.1786 3.56951C15.9623 2.81234 15.3133 2.16334 14.5561 1.94701C13.4745 1.40617 10.7703 1.51434 9.47227 1.51434ZM18.1256 8.65337V12.2229C18.1256 13.5209 17.693 14.8189 16.7195 15.9006C15.746 16.8741 14.448 17.3067 13.0418 17.3067H5.90276C4.60476 17.3067 3.30675 16.8741 2.22508 15.9006C1.35974 14.9271 0.818909 13.6291 0.818909 12.2229V8.65337V5.08385C0.818909 3.67768 1.35974 2.37968 2.22508 1.40617C3.30675 0.540835 4.60476 0 5.90276 0H13.0418C14.3398 0 15.6378 0.432668 16.7195 1.40617C17.5848 2.37968 18.1256 3.67768 18.1256 5.08385V8.65337Z" fill="#25272E"/>
</svg>
