<svg width="21" height="15" viewBox="0 0 21 15" fill="none" xmlns="http://www.w3.org/2000/svg">
<path d="M6.5325 14.999C8.12706 15.0079 9.70773 14.7353 11.1829 14.1971C12.658 13.6588 13.9982 12.8656 15.1257 11.8635C16.2532 10.8614 17.1457 9.67021 17.7513 8.35915C18.3569 7.04808 18.6635 5.6432 18.6535 4.22599V3.73097C19.4801 3.19273 20.1955 2.53132 20.7681 1.77606C19.9898 2.0786 19.1662 2.27926 18.3231 2.37176C19.217 1.89837 19.8877 1.15323 20.2111 0.274218C19.3781 0.718428 18.4645 1.03071 17.5113 1.19714C16.8693 0.589157 16.0197 0.186169 15.0941 0.050525C14.1685 -0.0851185 13.2184 0.0541442 12.3907 0.446766C11.5631 0.839387 10.9042 1.46348 10.5158 2.22248C10.1275 2.98148 10.0314 3.83307 10.2424 4.64549C8.54892 4.57161 6.8919 4.18154 5.37927 3.50066C3.86664 2.81979 2.53232 1.86338 1.46321 0.693727C0.924106 1.52534 0.760703 2.50795 1.00608 3.44261C1.25146 4.37728 1.88728 5.19415 2.78481 5.72782C2.1227 5.70513 1.4759 5.54417 0.896803 5.25797V5.29993C0.89092 6.16901 1.22033 7.01363 1.83014 7.69303C2.43995 8.37242 3.29332 8.84555 4.24802 9.03355C3.63218 9.18076 2.9871 9.2037 2.36001 9.10067C2.6364 9.84185 3.164 10.4889 3.87046 10.953C4.57692 11.4172 5.42763 11.6757 6.30594 11.6932C4.80423 12.7676 2.93783 13.359 1.01008 13.3713C0.672086 13.3626 0.334883 13.3374 0 13.2958C1.95121 14.4007 4.21894 14.9832 6.5325 14.9738" fill="#25272E"/>
</svg>
